<?xml version="1.0" encoding="iso-8859-1"?>
<!-- Generator: Adobe Illustrator 16.0.0, SVG Export Plug-In . SVG Version: 6.00 Build 0)  -->
<!DOCTYPE svg PUBLIC "-//W3C//DTD SVG 1.1//EN" "http://www.w3.org/Graphics/SVG/1.1/DTD/svg11.dtd">
<svg version="1.1" id="Capa_1" xmlns="http://www.w3.org/2000/svg" xmlns:xlink="http://www.w3.org/1999/xlink" x="0px" y="0px"
	 width="450.791px" height="450.792px" viewBox="0 0 450.791 450.792" style="enable-background:new 0 0 450.791 450.792;"
	 xml:space="preserve">
<g>
	<path d="M225.395,0C101.113,0,0,101.112,0,225.392c0,124.285,101.113,225.398,225.395,225.398
		c124.282,0,225.396-101.113,225.396-225.398C450.791,101.112,349.677,0,225.395,0z M225.395,428.375
		c-111.92,0-202.981-91.054-202.981-202.983c0-111.924,91.061-202.978,202.981-202.978c111.922,0,202.98,91.054,202.98,202.978
		C428.375,337.322,337.316,428.375,225.395,428.375z M339.446,157.422c0,19.628-15.912,35.541-35.542,35.541
		c-19.634,0-35.546-15.912-35.546-35.541s15.912-35.543,35.546-35.543C323.534,121.878,339.446,137.793,339.446,157.422z
		 M154.098,192.962c-19.629,0-35.542-15.912-35.542-35.541s15.912-35.543,35.542-35.543c19.627,0,35.543,15.915,35.543,35.543
		S173.725,192.962,154.098,192.962z M291.592,294.618l15.54,6.41c-13.789,33.454-46.062,55.079-82.235,55.079
		c-35.073,0-66.961-20.728-81.243-52.805l15.352-6.84c11.584,26.025,37.453,42.835,65.891,42.835
		C254.229,339.297,280.406,321.754,291.592,294.618z"/>
</g>
<g>
</g>
<g>
</g>
<g>
</g>
<g>
</g>
<g>
</g>
<g>
</g>
<g>
</g>
<g>
</g>
<g>
</g>
<g>
</g>
<g>
</g>
<g>
</g>
<g>
</g>
<g>
</g>
<g>
</g>
</svg>
